<?xml version="1.0" encoding="UTF-8"?>
<svg width="213px" height="64px" viewBox="0 0 213 64" version="1.1" xmlns="http://www.w3.org/2000/svg" xmlns:xlink="http://www.w3.org/1999/xlink">
    <!-- Generator: Sketch 51.2 (57519) - http://www.bohemiancoding.com/sketch -->
    <title>Google Play Dark</title>
    <desc>Created with Sketch.</desc>
    <defs></defs>
    <g id="Page-1" stroke="none" stroke-width="1" fill="none" fill-rule="evenodd">
        <g id="itinerum_homepage" transform="translate(-934.000000, -944.000000)">
            <g id="Group-3" transform="translate(701.000000, 675.000000)">
                <g id="Google-Play-Dark" transform="translate(233.000000, 269.000000)">
                    <rect id="button" fill="#FFFFFF" x="0" y="0" width="213" height="64" rx="10"></rect>
                    <path d="M70.2328667,11.425 L73.7878667,11.425 C75.4778751,11.425 76.785362,11.8824954 77.7103667,12.7975 C78.6353713,13.7125046 79.0978667,15.0149916 79.0978667,16.705 C79.0978667,18.3950084 78.6353713,19.6999954 77.7103667,20.62 C76.785362,21.5400046 75.4778751,22 73.7878667,22 L70.2328667,22 L70.2328667,11.425 Z M73.7128667,20.95 C76.4528804,20.95 77.8228667,19.5350142 77.8228667,16.705 C77.8228667,13.8849859 76.4528804,12.475 73.7128667,12.475 L71.4628667,12.475 L71.4628667,20.95 L73.7128667,20.95 Z M85.3678667,22.105 C84.6778633,22.105 84.0703693,21.9500015 83.5453667,21.64 C83.0203641,21.3299984 82.6153681,20.8875029 82.3303667,20.3125 C82.0453653,19.7374971 81.9028667,19.0700038 81.9028667,18.31 C81.9028667,17.5499962 82.0453653,16.8825029 82.3303667,16.3075 C82.6153681,15.7324971 83.0203641,15.2900015 83.5453667,14.98 C84.0703693,14.6699985 84.6778633,14.515 85.3678667,14.515 C86.0578702,14.515 86.6678641,14.6699985 87.1978667,14.98 C87.7278694,15.2900015 88.1353653,15.7324971 88.4203667,16.3075 C88.7053681,16.8825029 88.8478667,17.5499962 88.8478667,18.31 C88.8478667,19.0700038 88.7053681,19.7374971 88.4203667,20.3125 C88.1353653,20.8875029 87.7278694,21.3299984 87.1978667,21.64 C86.6678641,21.9500015 86.0578702,22.105 85.3678667,22.105 Z M85.3678667,21.1 C86.0878703,21.1 86.6403648,20.8625024 87.0253667,20.3875 C87.4103686,19.9124976 87.6028667,19.2200045 87.6028667,18.31 C87.6028667,17.4199956 87.4078687,16.7325024 87.0178667,16.2475 C86.6278648,15.7624976 86.0778703,15.52 85.3678667,15.52 C84.6578632,15.52 84.1078687,15.7624976 83.7178667,16.2475 C83.3278648,16.7325024 83.1328667,17.4199956 83.1328667,18.31 C83.1328667,19.2100045 83.3253648,19.8999976 83.7103667,20.38 C84.0953686,20.8600024 84.6478631,21.1 85.3678667,21.1 Z M101.687867,14.695 L102.902867,14.695 L100.187867,22 L99.0178668,22 L96.9628668,16.345 L94.8928668,22 L93.7378668,22 L91.0228668,14.695 L92.2828668,14.695 L94.3528668,20.56 L96.4678668,14.695 L97.5178668,14.695 L99.6028668,20.56 L101.687867,14.695 Z M109.277867,14.515 C111.027876,14.515 111.902867,15.4799903 111.902867,17.41 L111.902867,22 L110.687867,22 L110.687867,17.485 C110.687867,16.8049966 110.555368,16.3100016 110.290367,16 C110.025365,15.6899985 109.60287,15.535 109.022867,15.535 C108.352863,15.535 107.817869,15.739998 107.417867,16.15 C107.017865,16.5600021 106.817867,17.1149965 106.817867,17.815 L106.817867,22 L105.602867,22 L105.602867,14.695 L106.802867,14.695 L106.802867,15.895 C107.042868,15.4449978 107.377865,15.1025012 107.807867,14.8675 C108.237869,14.6324988 108.727864,14.515 109.277867,14.515 Z M115.322867,22 L115.322867,11.425 L116.537867,11.425 L116.537867,22 L115.322867,22 Z M123.032867,22.105 C122.342863,22.105 121.73537,21.9500015 121.210367,21.64 C120.685364,21.3299984 120.280368,20.8875029 119.995367,20.3125 C119.710365,19.7374971 119.567867,19.0700038 119.567867,18.31 C119.567867,17.5499962 119.710365,16.8825029 119.995367,16.3075 C120.280368,15.7324971 120.685364,15.2900015 121.210367,14.98 C121.73537,14.6699985 122.342863,14.515 123.032867,14.515 C123.72287,14.515 124.332864,14.6699985 124.862867,14.98 C125.39287,15.2900015 125.800365,15.7324971 126.085367,16.3075 C126.370368,16.8825029 126.512867,17.5499962 126.512867,18.31 C126.512867,19.0700038 126.370368,19.7374971 126.085367,20.3125 C125.800365,20.8875029 125.39287,21.3299984 124.862867,21.64 C124.332864,21.9500015 123.72287,22.105 123.032867,22.105 Z M123.032867,21.1 C123.752871,21.1 124.305365,20.8625024 124.690367,20.3875 C125.075369,19.9124976 125.267867,19.2200045 125.267867,18.31 C125.267867,17.4199956 125.072869,16.7325024 124.682867,16.2475 C124.292865,15.7624976 123.74287,15.52 123.032867,15.52 C122.322863,15.52 121.772869,15.7624976 121.382867,16.2475 C120.992865,16.7325024 120.797867,17.4199956 120.797867,18.31 C120.797867,19.2100045 120.990365,19.8999976 121.375367,20.38 C121.760369,20.8600024 122.312863,21.1 123.032867,21.1 Z M132.497867,14.515 C133.427872,14.515 134.120365,14.7524976 134.575367,15.2275 C135.030369,15.7025024 135.257867,16.4249952 135.257867,17.395 L135.257867,22 L134.072867,22 L134.072867,20.755 C133.882866,21.1850022 133.592869,21.5174988 133.202867,21.7525 C132.812865,21.9875012 132.36287,22.105 131.852867,22.105 C131.382865,22.105 130.950369,22.0100009 130.555367,21.82 C130.160365,21.6299991 129.847868,21.3650017 129.617867,21.025 C129.387866,20.6849983 129.272867,20.3100021 129.272867,19.9 C129.272867,19.3499973 129.412866,18.9225015 129.692867,18.6175 C129.972868,18.3124985 130.432864,18.0925007 131.072867,17.9575 C131.71287,17.8224993 132.602861,17.755 133.742867,17.755 L134.072867,17.755 L134.072867,17.26 C134.072867,16.649997 133.947868,16.2075014 133.697867,15.9325 C133.447866,15.6574986 133.04287,15.52 132.482867,15.52 C131.642863,15.52 130.807871,15.7799974 129.977867,16.3 L129.572867,15.415 C129.952869,15.1449986 130.410364,14.9275008 130.945367,14.7625 C131.48037,14.5974992 131.997864,14.515 132.497867,14.515 Z M132.017867,21.145 C132.61787,21.145 133.110365,20.942502 133.495367,20.5375 C133.880369,20.132498 134.072867,19.6100032 134.072867,18.97 L134.072867,18.535 L133.802867,18.535 C132.922863,18.535 132.252869,18.5724996 131.792867,18.6475 C131.332865,18.7225004 131.005368,18.8474991 130.810367,19.0225 C130.615366,19.1975009 130.517867,19.4549983 130.517867,19.795 C130.517867,20.185002 130.660366,20.5074987 130.945367,20.7625 C131.230368,21.0175013 131.587865,21.145 132.017867,21.145 Z M145.157867,11.425 L145.157867,22 L143.942867,22 L143.942867,20.665 C143.722866,21.1250023 143.400369,21.4799988 142.975367,21.73 C142.550365,21.9800013 142.05287,22.105 141.482867,22.105 C140.842864,22.105 140.277869,21.9450016 139.787867,21.625 C139.297865,21.3049984 138.917868,20.8575029 138.647867,20.2825 C138.377866,19.7074971 138.242867,19.0400038 138.242867,18.28 C138.242867,17.5299962 138.377866,16.8700028 138.647867,16.3 C138.917868,15.7299971 139.297865,15.2900015 139.787867,14.98 C140.277869,14.6699985 140.842864,14.515 141.482867,14.515 C142.05287,14.515 142.550365,14.6399988 142.975367,14.89 C143.400369,15.1400013 143.722866,15.4949977 143.942867,15.955 L143.942867,11.425 L145.157867,11.425 Z M141.722867,21.1 C142.432871,21.1 142.980365,20.8575024 143.365367,20.3725 C143.750369,19.8874976 143.942867,19.2000045 143.942867,18.31 C143.942867,17.4199956 143.750369,16.7350024 143.365367,16.255 C142.980365,15.7749976 142.432871,15.535 141.722867,15.535 C141.012863,15.535 140.460369,15.7749976 140.065367,16.255 C139.670365,16.7350024 139.472867,17.4099957 139.472867,18.28 C139.472867,19.1700045 139.670365,19.8624975 140.065367,20.3575 C140.460369,20.8525025 141.012863,21.1 141.722867,21.1 Z M156.707867,22.105 C156.017864,22.105 155.41037,21.9500015 154.885367,21.64 C154.360364,21.3299984 153.955369,20.8875029 153.670367,20.3125 C153.385366,19.7374971 153.242867,19.0700038 153.242867,18.31 C153.242867,17.5499962 153.385366,16.8825029 153.670367,16.3075 C153.955369,15.7324971 154.360364,15.2900015 154.885367,14.98 C155.41037,14.6699985 156.017864,14.515 156.707867,14.515 C157.397871,14.515 158.007864,14.6699985 158.537867,14.98 C159.06787,15.2900015 159.475366,15.7324971 159.760367,16.3075 C160.045369,16.8825029 160.187867,17.5499962 160.187867,18.31 C160.187867,19.0700038 160.045369,19.7374971 159.760367,20.3125 C159.475366,20.8875029 159.06787,21.3299984 158.537867,21.64 C158.007864,21.9500015 157.397871,22.105 156.707867,22.105 Z M156.707867,21.1 C157.427871,21.1 157.980365,20.8625024 158.365367,20.3875 C158.750369,19.9124976 158.942867,19.2200045 158.942867,18.31 C158.942867,17.4199956 158.747869,16.7325024 158.357867,16.2475 C157.967865,15.7624976 157.417871,15.52 156.707867,15.52 C155.997864,15.52 155.447869,15.7624976 155.057867,16.2475 C154.667865,16.7325024 154.472867,17.4199956 154.472867,18.31 C154.472867,19.2100045 154.665365,19.8999976 155.050367,20.38 C155.435369,20.8600024 155.987863,21.1 156.707867,21.1 Z M166.877867,14.515 C168.627876,14.515 169.502867,15.4799903 169.502867,17.41 L169.502867,22 L168.287867,22 L168.287867,17.485 C168.287867,16.8049966 168.155368,16.3100016 167.890367,16 C167.625366,15.6899985 167.20287,15.535 166.622867,15.535 C165.952864,15.535 165.417869,15.739998 165.017867,16.15 C164.617865,16.5600021 164.417867,17.1149965 164.417867,17.815 L164.417867,22 L163.202867,22 L163.202867,14.695 L164.402867,14.695 L164.402867,15.895 C164.642868,15.4449978 164.977865,15.1025012 165.407867,14.8675 C165.837869,14.6324988 166.327864,14.515 166.877867,14.515 Z" id="Download-on" fill="#000000"></path>
                    <path d="M158.023438,43.7890625 C158.023438,45.7656349 157.585942,47.3339786 156.710938,48.4941406 C155.835933,49.6543027 154.66407,50.234375 153.195312,50.234375 C151.460929,50.234375 150.132817,49.6250061 149.210938,48.40625 L149.210938,54.875 L147.816406,54.875 L147.816406,37.3203125 L149.117188,37.3203125 L149.1875,39.1132812 C150.101567,37.761712 151.425773,37.0859375 153.160156,37.0859375 C154.675789,37.0859375 155.86523,37.6601505 156.728516,38.8085938 C157.591801,39.957037 158.023438,41.5507711 158.023438,43.5898438 L158.023438,43.7890625 Z M156.617188,43.5429688 C156.617188,41.9257732 156.28516,40.6484422 155.621094,39.7109375 C154.957028,38.7734328 154.031256,38.3046875 152.84375,38.3046875 C151.984371,38.3046875 151.246097,38.5117167 150.628906,38.9257812 C150.011716,39.3398458 149.539064,39.9414023 149.210938,40.7304688 L149.210938,46.8125 C149.546877,47.5390661 150.027341,48.0937481 150.652344,48.4765625 C151.277347,48.8593769 152.015621,49.0507812 152.867188,49.0507812 C154.046881,49.0507812 154.966794,48.5800828 155.626953,47.6386719 C156.287113,46.6972609 156.617188,45.3320402 156.617188,43.5429688 Z M162.699219,50 L161.292969,50 L161.292969,32 L162.699219,32 L162.699219,50 Z M174.511719,50 C174.371093,49.6015605 174.28125,49.0117227 174.242188,48.2304688 C173.749998,48.871097 173.123051,49.3652326 172.361328,49.7128906 C171.599606,50.0605486 170.792973,50.234375 169.941406,50.234375 C168.72265,50.234375 167.736332,49.8945346 166.982422,49.2148438 C166.228512,48.5351529 165.851562,47.6757864 165.851562,46.6367188 C165.851562,45.4023376 166.365229,44.4257848 167.392578,43.7070312 C168.419927,42.9882777 169.851553,42.6289062 171.6875,42.6289062 L174.230469,42.6289062 L174.230469,41.1875 C174.230469,40.2812455 173.951175,39.568362 173.392578,39.0488281 C172.833982,38.5292943 172.019537,38.2695312 170.949219,38.2695312 C169.972651,38.2695312 169.164066,38.5195287 168.523438,39.0195312 C167.882809,39.5195338 167.5625,40.1210902 167.5625,40.8242188 L166.15625,40.8125 C166.15625,39.8046825 166.624995,38.9316443 167.5625,38.1933594 C168.500005,37.4550744 169.652337,37.0859375 171.019531,37.0859375 C172.433601,37.0859375 173.548824,37.4394496 174.365234,38.1464844 C175.181645,38.8535192 175.601562,39.8398374 175.625,41.1054688 L175.625,47.1054688 C175.625,48.3320374 175.753905,49.249997 176.011719,49.859375 L176.011719,50 L174.511719,50 Z M170.105469,48.9921875 C171.042973,48.9921875 171.880856,48.7656273 172.619141,48.3125 C173.357426,47.8593727 173.89453,47.25391 174.230469,46.4960938 L174.230469,43.7070312 L171.722656,43.7070312 C170.324212,43.7226563 169.230473,43.9785131 168.441406,44.4746094 C167.65234,44.9707056 167.257812,45.6523394 167.257812,46.5195312 C167.257812,47.2304723 167.521482,47.8203102 168.048828,48.2890625 C168.576175,48.7578148 169.261715,48.9921875 170.105469,48.9921875 Z M183.382812,47.984375 L187.085938,37.3203125 L188.597656,37.3203125 L183.183594,52.15625 L182.902344,52.8125 C182.207028,54.3515702 181.13282,55.1210938 179.679688,55.1210938 C179.343748,55.1210938 178.984377,55.0664068 178.601562,54.9570312 L178.589844,53.796875 L179.316406,53.8671875 C180.00391,53.8671875 180.560545,53.6972673 180.986328,53.3574219 C181.412112,53.0175764 181.773436,52.4335979 182.070312,51.6054688 L182.691406,49.8945312 L177.910156,37.3203125 L179.445312,37.3203125 L183.382812,47.984375 Z" id="play" fill="#000000"></path>
                    <path d="M16,49.2637152 L16,14.7403058 C16,13.5355809 16.6984406,12.4942128 17.7119977,12 L37.6821408,31.9961212 L17.7039662,52 C16.6947493,51.5042845 16,50.4653329 16,49.2637152 Z M44.0177352,38.3396961 L22.1816563,50.9630792 L39.4032451,33.7192455 L44.0177352,38.3396961 Z M50.8052056,29.5817164 C51.531493,30.1383556 52,31.0154533 52,32.0020105 C52,32.9737429 51.5456901,33.839062 50.838062,34.3967166 L46.1998423,37.0781701 L41.1241465,31.9961212 L46.1963944,26.9172809 L50.8052056,29.5817164 Z M22.1944541,13.0418962 L44.0142873,25.6558361 L39.4032451,30.2727938 L22.1944541,13.0418962 Z" id="logo" fill="#000000" fill-rule="nonzero"></path>
                    <g id="Google_2015_logo" transform="translate(69.000000, 32.000000)" fill="#000000" fill-rule="nonzero">
                        <path d="M30.437963,12.5813333 C30.437963,15.9866667 27.810963,18.496 24.587037,18.496 C21.3631111,18.496 18.7361111,15.9866667 18.7361111,12.5813333 C18.7361111,9.152 21.3631111,6.66666667 24.587037,6.66666667 C27.810963,6.66666667 30.437963,9.152 30.437963,12.5813333 Z M27.8767037,12.5813333 C27.8767037,10.4533333 26.3541481,8.99733333 24.587037,8.99733333 C22.8199259,8.99733333 21.2973704,10.4533333 21.2973704,12.5813333 C21.2973704,14.688 22.8199259,16.1653333 24.587037,16.1653333 C26.3541481,16.1653333 27.8767037,14.6853333 27.8767037,12.5813333 Z" id="Shape"></path>
                        <path d="M43.0601852,12.5813333 C43.0601852,15.9866667 40.4331852,18.496 37.2092593,18.496 C33.9853333,18.496 31.3583333,15.9866667 31.3583333,12.5813333 C31.3583333,9.15466667 33.9853333,6.66666667 37.2092593,6.66666667 C40.4331852,6.66666667 43.0601852,9.152 43.0601852,12.5813333 Z M40.4989259,12.5813333 C40.4989259,10.4533333 38.9763704,8.99733333 37.2092593,8.99733333 C35.4421481,8.99733333 33.9195926,10.4533333 33.9195926,12.5813333 C33.9195926,14.688 35.4421481,16.1653333 37.2092593,16.1653333 C38.9763704,16.1653333 40.4989259,14.6853333 40.4989259,12.5813333 Z" id="Shape"></path>
                        <path d="M55.1564815,7.024 L55.1564815,17.6426667 C55.1564815,22.0106667 52.6162593,23.7946667 49.6132222,23.7946667 C46.7863704,23.7946667 45.085,21.8773333 44.4433704,20.3093333 L46.6732963,19.368 C47.0703704,20.3306667 48.0433333,21.4666667 49.6105926,21.4666667 C51.5328519,21.4666667 52.7240741,20.264 52.7240741,18 L52.7240741,17.1493333 L52.6346667,17.1493333 C52.0614074,17.8666667 50.956963,18.4933333 49.5632593,18.4933333 C46.647,18.4933333 43.9752963,15.9173333 43.9752963,12.6026667 C43.9752963,9.264 46.647,6.66666667 49.5632593,6.66666667 C50.9543333,6.66666667 52.0587778,7.29333333 52.6346667,7.98933333 L52.7240741,7.98933333 L52.7240741,7.02666667 L55.1564815,7.02666667 L55.1564815,7.024 Z M52.9055185,12.6026667 C52.9055185,10.52 51.5354815,8.99733333 49.792037,8.99733333 C48.0249259,8.99733333 46.5444444,10.52 46.5444444,12.6026667 C46.5444444,14.664 48.0249259,16.1653333 49.792037,16.1653333 C51.5354815,16.1653333 52.9055185,14.664 52.9055185,12.6026667 Z" id="Shape"></path>
                        <polygon id="Shape" points="59.1666667 0.8 59.1666667 18.1333333 56.6685185 18.1333333 56.6685185 0.8"></polygon>
                        <path d="M68.9015556,14.528 L70.8895556,15.872 C70.2479259,16.8346667 68.7017037,18.4933333 66.03,18.4933333 C62.7166667,18.4933333 60.2421852,15.896 60.2421852,12.5786667 C60.2421852,9.06133333 62.7377037,6.664 65.7433704,6.664 C68.7700741,6.664 70.2505556,9.10666667 70.7344074,10.4266667 L71,11.0986667 L63.2031481,14.3733333 C63.8000741,15.56 64.7283333,16.1653333 66.03,16.1653333 C67.3342963,16.1653333 68.2388889,15.5146667 68.9015556,14.528 Z M62.7824074,12.4 L67.9943333,10.2053333 C67.7077037,9.46666667 66.8451852,8.952 65.8301481,8.952 C64.5284815,8.952 62.7166667,10.1173333 62.7824074,12.4 Z" id="Shape"></path>
                        <path d="M9.27996296,11.0426667 L9.27996296,8.53333333 L17.6185185,8.53333333 C17.700037,8.97066667 17.7421111,9.488 17.7421111,10.048 C17.7421111,11.9306667 17.2345926,14.2586667 15.598963,15.9173333 C14.008037,17.5973333 11.9753333,18.4933333 9.28259259,18.4933333 C4.29155556,18.4933333 0.0946666667,14.3706667 0.0946666667,9.30933333 C0.0946666667,4.248 4.29155556,0.125333333 9.28259259,0.125333333 C12.0437037,0.125333333 14.0106667,1.224 15.4885185,2.656 L13.7424444,4.42666667 C12.6827037,3.41866667 11.2469259,2.63466667 9.27996296,2.63466667 C5.6352963,2.63466667 2.78477778,5.61333333 2.78477778,9.30933333 C2.78477778,13.0053333 5.6352963,15.984 9.27996296,15.984 C11.644,15.984 12.9903704,15.0213333 13.8528889,14.1466667 C14.5523704,13.4373333 15.0125556,12.424 15.194,11.04 L9.27996296,11.0426667 Z" id="Shape"></path>
                    </g>
                </g>
            </g>
        </g>
    </g>
</svg>