<?xml version="1.0" encoding="UTF-8"?>
<svg width="150px" height="46px" viewBox="0 0 150 46" version="1.1" xmlns="http://www.w3.org/2000/svg" xmlns:xlink="http://www.w3.org/1999/xlink">
    <!-- Generator: Sketch 51.2 (57519) - http://www.bohemiancoding.com/sketch -->
    <title>Apple Store Dark</title>
    <desc>Created with Sketch.</desc>
    <defs></defs>
    <g id="Page-1" stroke="none" stroke-width="1" fill="none" fill-rule="evenodd">
        <g id="itinerum_homepage" transform="translate(-701.000000, -944.000000)">
            <g id="Group-3" transform="translate(701.000000, 675.000000)">
                <g id="Apple-Store-Dark" transform="translate(0.000000, 269.000000)">
                    <rect id="button" fill="#FFFFFF" x="0" y="0" width="150" height="45.0704225" rx="7.04225352"></rect>
                    <path d="M48.806338,9.18661972 L51.3098592,9.18661972 C52.500006,9.18661972 53.4207714,9.5087996 54.0721831,10.153169 C54.7235948,10.7975384 55.0492958,11.7147828 55.0492958,12.9049296 C55.0492958,14.0950764 54.7235948,15.0140813 54.0721831,15.6619718 C53.4207714,16.3098624 52.500006,16.6338028 51.3098592,16.6338028 L48.806338,16.6338028 L48.806338,9.18661972 Z M51.2570423,15.8943662 C53.1866294,15.8943662 54.1514085,14.8978973 54.1514085,12.9049296 C54.1514085,10.9190042 53.1866294,9.92605634 51.2570423,9.92605634 L49.6725352,9.92605634 L49.6725352,15.8943662 L51.2570423,15.8943662 Z M59.4647888,16.7077465 C58.9788708,16.7077465 58.5510582,16.5985926 58.1813381,16.3802817 C57.8116179,16.1619707 57.5264095,15.8503541 57.3257043,15.4454225 C57.124999,15.0404909 57.0246479,14.5704252 57.0246479,14.0352113 C57.0246479,13.4999973 57.124999,13.0299316 57.3257043,12.625 C57.5264095,12.2200684 57.8116179,11.9084518 58.1813381,11.6901408 C58.5510582,11.4718299 58.9788708,11.3626761 59.4647888,11.3626761 C59.9507067,11.3626761 60.3802799,11.4718299 60.7535212,11.6901408 C61.1267625,11.9084518 61.4137314,12.2200684 61.6144367,12.625 C61.8151419,13.0299316 61.915493,13.4999973 61.915493,14.0352113 C61.915493,14.5704252 61.8151419,15.0404909 61.6144367,15.4454225 C61.4137314,15.8503541 61.1267625,16.1619707 60.7535212,16.3802817 C60.3802799,16.5985926 59.9507067,16.7077465 59.4647888,16.7077465 Z M59.4647888,16 C59.9718336,16 60.3609142,15.8327482 60.6320423,15.4982394 C60.9031704,15.1637307 61.0387324,14.6760595 61.0387324,14.0352113 C61.0387324,13.4084476 60.9014099,12.9242975 60.6267606,12.5827465 C60.3521113,12.2411955 59.9647913,12.0704225 59.4647888,12.0704225 C58.9647863,12.0704225 58.5774662,12.2411955 58.3028169,12.5827465 C58.0281677,12.9242975 57.8908451,13.4084476 57.8908451,14.0352113 C57.8908451,14.6690173 58.0264071,15.1549279 58.2975352,15.4929577 C58.5686634,15.8309876 58.957744,16 59.4647888,16 Z M70.9577465,11.4894366 L71.8133803,11.4894366 L69.9014085,16.6338028 L69.0774649,16.6338028 L67.6302818,12.6514085 L66.1725353,16.6338028 L65.359155,16.6338028 L63.4471832,11.4894366 L64.3345071,11.4894366 L65.7922536,15.6197183 L67.2816902,11.4894366 L68.0211268,11.4894366 L69.4894367,15.6197183 L70.9577465,11.4894366 Z M76.302817,11.3626761 C77.5352175,11.3626761 78.1514086,12.0422467 78.1514086,13.4014085 L78.1514086,16.6338028 L77.2957747,16.6338028 L77.2957747,13.4542254 C77.2957747,12.9753497 77.2024658,12.6267617 77.0158452,12.4084507 C76.8292245,12.1901398 76.5316923,12.0809859 76.1232395,12.0809859 C75.6514062,12.0809859 75.2746494,12.2253507 74.9929578,12.5140845 C74.7112663,12.8028183 74.5704226,13.1936595 74.5704226,13.6866197 L74.5704226,16.6338028 L73.7147888,16.6338028 L73.7147888,11.4894366 L74.5598593,11.4894366 L74.5598593,12.334507 C74.7288742,12.017604 74.9647873,11.7764093 75.2676057,11.6109155 C75.5704242,11.4454217 75.9154911,11.3626761 76.302817,11.3626761 Z M80.5598593,16.6338028 L80.5598593,9.18661972 L81.4154931,9.18661972 L81.4154931,16.6338028 L80.5598593,16.6338028 Z M85.9894368,16.7077465 C85.5035189,16.7077465 85.0757062,16.5985926 84.7059861,16.3802817 C84.3362659,16.1619707 84.0510575,15.8503541 83.8503523,15.4454225 C83.6496471,15.0404909 83.5492959,14.5704252 83.5492959,14.0352113 C83.5492959,13.4999973 83.6496471,13.0299316 83.8503523,12.625 C84.0510575,12.2200684 84.3362659,11.9084518 84.7059861,11.6901408 C85.0757062,11.4718299 85.5035189,11.3626761 85.9894368,11.3626761 C86.4753547,11.3626761 86.9049279,11.4718299 87.2781692,11.6901408 C87.6514105,11.9084518 87.9383794,12.2200684 88.1390847,12.625 C88.3397899,13.0299316 88.440141,13.4999973 88.440141,14.0352113 C88.440141,14.5704252 88.3397899,15.0404909 88.1390847,15.4454225 C87.9383794,15.8503541 87.6514105,16.1619707 87.2781692,16.3802817 C86.9049279,16.5985926 86.4753547,16.7077465 85.9894368,16.7077465 Z M85.9894368,16 C86.4964816,16 86.8855622,15.8327482 87.1566903,15.4982394 C87.4278184,15.1637307 87.5633804,14.6760595 87.5633804,14.0352113 C87.5633804,13.4084476 87.4260579,12.9242975 87.1514086,12.5827465 C86.8767594,12.2411955 86.4894393,12.0704225 85.9894368,12.0704225 C85.4894343,12.0704225 85.1021142,12.2411955 84.827465,12.5827465 C84.5528157,12.9242975 84.4154931,13.4084476 84.4154931,14.0352113 C84.4154931,14.6690173 84.5510552,15.1549279 84.8221833,15.4929577 C85.0933114,15.8309876 85.482392,16 85.9894368,16 Z M92.6549298,11.3626761 C93.3098626,11.3626761 93.7975338,11.5299279 94.1179579,11.8644366 C94.4383821,12.1989453 94.5985918,12.7077431 94.5985918,13.3908451 L94.5985918,16.6338028 L93.7640847,16.6338028 L93.7640847,15.7570423 C93.6302812,16.0598607 93.4260579,16.2940133 93.1514087,16.459507 C92.8767594,16.6250008 92.5598612,16.7077465 92.2007044,16.7077465 C91.8697169,16.7077465 91.5651424,16.6408457 91.286972,16.5070423 C91.0088016,16.3732388 90.7887334,16.1866209 90.6267608,15.9471831 C90.4647881,15.7077453 90.383803,15.4436634 90.383803,15.1549296 C90.383803,14.7676037 90.4823936,14.4665504 90.6795777,14.2517606 C90.8767618,14.0369708 91.2007022,13.8820427 91.6514087,13.7869718 C92.1021151,13.6919009 92.7288694,13.6443662 93.5316903,13.6443662 L93.7640847,13.6443662 L93.7640847,13.2957746 C93.7640847,12.866195 93.6760574,12.5545784 93.5000002,12.3609155 C93.323943,12.1672526 93.0387346,12.0704225 92.6443664,12.0704225 C92.0528141,12.0704225 91.4647919,12.2535193 90.8802819,12.6197183 L90.5950706,11.9964789 C90.8626776,11.8063371 91.1848575,11.6531696 91.5616199,11.5369718 C91.9383824,11.4207741 92.3028153,11.3626761 92.6549298,11.3626761 Z M92.3169016,16.0316901 C92.7394389,16.0316901 93.0862665,15.8890859 93.3573946,15.6038732 C93.6285227,15.3186605 93.7640847,14.9507065 93.7640847,14.5 L93.7640847,14.193662 L93.5739439,14.193662 C92.9542225,14.193662 92.4823962,14.2200702 92.1584509,14.2728873 C91.8345056,14.3257045 91.6038741,14.4137318 91.4665495,14.5369718 C91.3292249,14.6602119 91.2605636,14.8415481 91.2605636,15.0809859 C91.2605636,15.3556352 91.3609147,15.5827456 91.5616199,15.7623239 C91.7623251,15.9419023 92.0140832,16.0316901 92.3169016,16.0316901 Z M101.570423,9.18661972 L101.570423,16.6338028 L100.714789,16.6338028 L100.714789,15.693662 C100.559859,16.0176073 100.332748,16.2676048 100.033451,16.443662 C99.7341537,16.6197192 99.3838051,16.7077465 98.9823946,16.7077465 C98.5316881,16.7077465 98.1338048,16.5950715 97.7887326,16.3697183 C97.4436605,16.1443651 97.1760575,15.8292274 96.9859157,15.4242958 C96.7957739,15.0193642 96.7007045,14.5492985 96.7007045,14.0140845 C96.7007045,13.4859129 96.7957739,13.0211288 96.9859157,12.6197183 C97.1760575,12.2183079 97.4436605,11.9084518 97.7887326,11.6901408 C98.1338048,11.4718299 98.5316881,11.3626761 98.9823946,11.3626761 C99.3838051,11.3626761 99.7341537,11.4507033 100.033451,11.6267606 C100.332748,11.8028178 100.559859,12.0528153 100.714789,12.3767606 L100.714789,9.18661972 L101.570423,9.18661972 Z M99.1514087,16 C99.6514112,16 100.036971,15.8292271 100.308099,15.4876761 C100.579227,15.1461251 100.714789,14.661975 100.714789,14.0352113 C100.714789,13.4084476 100.579227,12.926058 100.308099,12.5880282 C100.036971,12.2499983 99.6514112,12.0809859 99.1514087,12.0809859 C98.6514062,12.0809859 98.2623256,12.2499983 97.9841552,12.5880282 C97.7059848,12.926058 97.5669016,13.4014054 97.5669016,14.0140845 C97.5669016,14.6408482 97.7059848,15.1285194 97.9841552,15.4771127 C98.2623256,15.825706 98.6514062,16 99.1514087,16 Z M109.704226,16.7077465 C109.218308,16.7077465 108.790495,16.5985926 108.420775,16.3802817 C108.051055,16.1619707 107.765846,15.8503541 107.565141,15.4454225 C107.364436,15.0404909 107.264085,14.5704252 107.264085,14.0352113 C107.264085,13.4999973 107.364436,13.0299316 107.565141,12.625 C107.765846,12.2200684 108.051055,11.9084518 108.420775,11.6901408 C108.790495,11.4718299 109.218308,11.3626761 109.704226,11.3626761 C110.190144,11.3626761 110.619717,11.4718299 110.992958,11.6901408 C111.366199,11.9084518 111.653168,12.2200684 111.853874,12.625 C112.054579,13.0299316 112.15493,13.4999973 112.15493,14.0352113 C112.15493,14.5704252 112.054579,15.0404909 111.853874,15.4454225 C111.653168,15.8503541 111.366199,16.1619707 110.992958,16.3802817 C110.619717,16.5985926 110.190144,16.7077465 109.704226,16.7077465 Z M109.704226,16 C110.21127,16 110.600351,15.8327482 110.871479,15.4982394 C111.142607,15.1637307 111.278169,14.6760595 111.278169,14.0352113 C111.278169,13.4084476 111.140847,12.9242975 110.866197,12.5827465 C110.591548,12.2411955 110.204228,12.0704225 109.704226,12.0704225 C109.204223,12.0704225 108.816903,12.2411955 108.542254,12.5827465 C108.267605,12.9242975 108.130282,13.4084476 108.130282,14.0352113 C108.130282,14.6690173 108.265844,15.1549279 108.536972,15.4929577 C108.8081,15.8309876 109.197181,16 109.704226,16 Z M116.866198,11.3626761 C118.098598,11.3626761 118.714789,12.0422467 118.714789,13.4014085 L118.714789,16.6338028 L117.859155,16.6338028 L117.859155,13.4542254 C117.859155,12.9753497 117.765846,12.6267617 117.579226,12.4084507 C117.392605,12.1901398 117.095073,12.0809859 116.68662,12.0809859 C116.214787,12.0809859 115.83803,12.2253507 115.556338,12.5140845 C115.274647,12.8028183 115.133803,13.1936595 115.133803,13.6866197 L115.133803,16.6338028 L114.278169,16.6338028 L114.278169,11.4894366 L115.12324,11.4894366 L115.12324,12.334507 C115.292255,12.017604 115.528168,11.7764093 115.830986,11.6109155 C116.133805,11.4454217 116.478872,11.3626761 116.866198,11.3626761 Z M126.954226,16.0211268 C127.109156,16.0211268 127.264084,16.0105635 127.419014,15.9894366 L127.376761,16.665493 C127.214788,16.6936621 127.038734,16.7077465 126.848592,16.7077465 C126.228871,16.7077465 125.762326,16.5457763 125.448944,16.221831 C125.135562,15.8978857 124.978874,15.447186 124.978874,14.8697183 L124.978874,12.165493 L123.975353,12.165493 L123.975353,11.4894366 L124.978874,11.4894366 L124.978874,9.92605634 L125.834507,9.92605634 L125.834507,11.4894366 L127.292254,11.4894366 L127.292254,12.165493 L125.834507,12.165493 L125.834507,14.806338 C125.834507,15.6162012 126.207743,16.0211268 126.954226,16.0211268 Z M131.71831,11.3626761 C132.950711,11.3626761 133.566902,12.0422467 133.566902,13.4014085 L133.566902,16.6338028 L132.711268,16.6338028 L132.711268,13.4542254 C132.711268,12.9753497 132.617959,12.6267617 132.431338,12.4084507 C132.244718,12.1901398 131.947186,12.0809859 131.538733,12.0809859 C131.066899,12.0809859 130.690143,12.2253507 130.408451,12.5140845 C130.12676,12.8028183 129.985916,13.1936595 129.985916,13.6866197 L129.985916,16.6338028 L129.130282,16.6338028 L129.130282,9.18661972 L129.985916,9.18661972 L129.985916,12.3133803 C130.154931,12.0035196 130.389083,11.7676064 130.688381,11.6056338 C130.987678,11.4436612 131.330984,11.3626761 131.71831,11.3626761 Z M140.285212,14.193662 L136.524648,14.193662 C136.552818,14.7922565 136.714788,15.2447168 137.010564,15.5510563 C137.30634,15.8573959 137.72535,16.0105634 138.267606,16.0105634 C138.866201,16.0105634 139.415491,15.8063401 139.915493,15.3978873 L140.200705,16.0211268 C139.975351,16.2323954 139.686622,16.3996473 139.334508,16.5228873 C138.982393,16.6461274 138.623242,16.7077465 138.257043,16.7077465 C137.454222,16.7077465 136.822186,16.4718333 136.360916,16 C135.899646,15.5281667 135.669015,14.8767647 135.669015,14.0457746 C135.669015,13.517603 135.771126,13.0510584 135.975353,12.6461268 C136.179579,12.2411952 136.466548,11.9260575 136.836268,11.7007042 C137.205988,11.475351 137.626759,11.3626761 138.098592,11.3626761 C138.781694,11.3626761 139.3169,11.5862654 139.704226,12.0334507 C140.091552,12.480636 140.285212,13.0950665 140.285212,13.8767606 L140.285212,14.193662 Z M138.109155,12.028169 C137.658449,12.028169 137.297537,12.1690127 137.026409,12.4507042 C136.755281,12.7323958 136.595071,13.1302791 136.545775,13.6443662 L139.535212,13.6443662 C139.521127,13.1232368 139.390847,12.7235929 139.144367,12.4454225 C138.897887,12.1672521 138.55282,12.028169 138.109155,12.028169 Z" id="Download-on-the" fill="#000000"></path>
                    <path d="M60.671831,37.1971831 L59.0788732,33.5007042 L51.5633803,33.5007042 L49.9704225,37.1971831 L48.2549296,37.1971831 L54.5859155,22.7992958 L56.0359155,22.7992958 L62.3669014,37.1971831 L60.671831,37.1971831 Z M52.1556338,32.1119718 L58.4866197,32.1119718 L55.3211268,24.7394366 L52.1556338,32.1119718 Z M69.2697183,27.006338 C70.1410842,27.006338 70.9103253,27.2241762 71.5774648,27.6598592 C72.2446043,28.0955421 72.76197,28.7048083 73.1295775,29.4876761 C73.4971849,30.2705438 73.6809859,31.1793375 73.6809859,32.2140845 C73.6809859,33.2488315 73.4971849,34.1508178 73.1295775,34.9200704 C72.76197,35.6893231 72.248008,36.2849744 71.5876761,36.7070423 C70.9273441,37.1291101 70.1546993,37.3401408 69.2697183,37.3401408 C68.4936581,37.3401408 67.8163174,37.1699548 67.2376761,36.8295775 C66.6590347,36.4892002 66.2199545,36.0058717 65.9204225,35.3795775 L65.9204225,40.8732394 L64.2661972,40.8732394 L64.2661972,27.2514085 L65.9204225,27.2514085 L65.9204225,28.9669014 C66.2199545,28.3406072 66.6590347,27.8572787 67.2376761,27.5169014 C67.8163174,27.1765241 68.4936581,27.006338 69.2697183,27.006338 Z M68.9429577,35.971831 C69.9096292,35.971831 70.658448,35.6450737 71.1894366,34.9915493 C71.7204252,34.3380249 71.9859155,33.4122126 71.9859155,32.2140845 C71.9859155,31.0159565 71.7204252,30.0799329 71.1894366,29.4059859 C70.658448,28.7320389 69.9096292,28.3950704 68.9429577,28.3950704 C67.9762862,28.3950704 67.2308712,28.7218277 66.7066901,29.3753521 C66.1825091,30.0288765 65.9204225,30.9614963 65.9204225,32.1732394 C65.9204225,33.3849826 66.1825091,34.3210061 66.7066901,34.981338 C67.2308712,35.64167 67.9762862,35.971831 68.9429577,35.971831 Z M81.1556338,27.006338 C82.0269997,27.006338 82.7962408,27.2241762 83.4633803,27.6598592 C84.1305198,28.0955421 84.6478855,28.7048083 85.015493,29.4876761 C85.3831004,30.2705438 85.5669014,31.1793375 85.5669014,32.2140845 C85.5669014,33.2488315 85.3831004,34.1508178 85.015493,34.9200704 C84.6478855,35.6893231 84.1339235,36.2849744 83.4735915,36.7070423 C82.8132596,37.1291101 82.0406148,37.3401408 81.1556338,37.3401408 C80.3795736,37.3401408 79.7022329,37.1699548 79.1235915,36.8295775 C78.5449502,36.4892002 78.10587,36.0058717 77.806338,35.3795775 L77.806338,40.8732394 L76.1521127,40.8732394 L76.1521127,27.2514085 L77.806338,27.2514085 L77.806338,28.9669014 C78.10587,28.3406072 78.5449502,27.8572787 79.1235915,27.5169014 C79.7022329,27.1765241 80.3795736,27.006338 81.1556338,27.006338 Z M80.8288732,35.971831 C81.7955447,35.971831 82.5443635,35.6450737 83.0753521,34.9915493 C83.6063407,34.3380249 83.871831,33.4122126 83.871831,32.2140845 C83.871831,31.0159565 83.6063407,30.0799329 83.0753521,29.4059859 C82.5443635,28.7320389 81.7955447,28.3950704 80.8288732,28.3950704 C79.8622017,28.3950704 79.1167867,28.7218277 78.5926056,29.3753521 C78.0684246,30.0288765 77.806338,30.9614963 77.806338,32.1732394 C77.806338,33.3849826 78.0684246,34.3210061 78.5926056,34.981338 C79.1167867,35.64167 79.8622017,35.971831 80.8288732,35.971831 Z M98.1267606,37.3605634 C95.8802705,37.3605634 94.0831053,36.7547009 92.7352113,35.5429577 L93.3887324,34.256338 C94.0967172,34.8554021 94.8217099,35.284271 95.5637324,35.5429577 C96.3057549,35.8016445 97.1668965,35.9309859 98.1471831,35.9309859 C99.3044659,35.9309859 100.196241,35.7063403 100.822535,35.2570423 C101.448829,34.8077442 101.761972,34.174652 101.761972,33.3577465 C101.761972,32.8812183 101.612208,32.493194 101.312676,32.193662 C101.013144,31.89413 100.618312,31.6558694 100.128169,31.4788732 C99.6380257,31.301877 98.9777037,31.1180761 98.1471831,30.9274648 C97.0307456,30.668778 96.1151444,30.3964803 95.4003521,30.1105634 C94.6855598,29.8246465 94.1069271,29.4161998 93.6644366,28.8852113 C93.2219461,28.3542227 93.0007042,27.6598634 93.0007042,26.8021127 C93.0007042,25.9852072 93.2151387,25.2602144 93.6440141,24.6271127 C94.0728895,23.9940109 94.6855594,23.503875 95.4820423,23.1566901 C96.2785251,22.8095053 97.2009337,22.6359155 98.2492958,22.6359155 C99.2431975,22.6359155 100.172414,22.7924867 101.036972,23.1056338 C101.90153,23.4187809 102.63333,23.8680722 103.232394,24.4535211 L102.599296,25.7401408 C101.918541,25.1546919 101.227586,24.7292267 100.526408,24.4637324 C99.8252312,24.1982381 99.0662013,24.065493 98.2492958,24.065493 C97.1328583,24.065493 96.2581018,24.3003498 95.625,24.7700704 C94.9918982,25.2397911 94.6753521,25.8967094 94.6753521,26.7408451 C94.6753521,27.4624449 94.9544573,28.0070404 95.5126761,28.3746479 C96.0708948,28.7422554 96.9150178,29.0553978 98.0450704,29.3140845 C99.2840438,29.6136165 100.257508,29.889318 100.965493,30.1411972 C101.673478,30.3930764 102.262322,30.7708895 102.732042,31.2746479 C103.201763,31.7784063 103.43662,32.4523432 103.43662,33.2964789 C103.43662,34.1133844 103.222185,34.828166 102.79331,35.4408451 C102.364434,36.0535242 101.748361,36.5266415 100.94507,36.8602113 C100.14178,37.193781 99.2023528,37.3605634 98.1267606,37.3605634 Z M110.278169,36.0126761 C110.577701,36.0126761 110.877229,35.9922537 111.176761,35.9514085 L111.09507,37.2584507 C110.781923,37.3129111 110.441551,37.3401408 110.073944,37.3401408 C108.875816,37.3401408 107.973829,37.0269984 107.367958,36.4007042 C106.762086,35.77441 106.459155,34.9030572 106.459155,33.7866197 L106.459155,28.5584507 L104.519014,28.5584507 L104.519014,27.2514085 L106.459155,27.2514085 L106.459155,24.2288732 L108.11338,24.2288732 L108.11338,27.2514085 L110.93169,27.2514085 L110.93169,28.5584507 L108.11338,28.5584507 L108.11338,33.6640845 C108.11338,35.22982 108.834969,36.0126761 110.278169,36.0126761 Z M116.976761,37.3401408 C116.037319,37.3401408 115.210215,37.1291101 114.495423,36.7070423 C113.78063,36.2849744 113.229227,35.6825157 112.841197,34.8996479 C112.453167,34.1167801 112.259155,33.2079864 112.259155,32.1732394 C112.259155,31.1384925 112.453167,30.2296988 112.841197,29.446831 C113.229227,28.6639632 113.78063,28.0615045 114.495423,27.6394366 C115.210215,27.2173688 116.037319,27.006338 116.976761,27.006338 C117.916202,27.006338 118.74671,27.2173688 119.46831,27.6394366 C120.18991,28.0615045 120.744716,28.6639632 121.132746,29.446831 C121.520777,30.2296988 121.714789,31.1384925 121.714789,32.1732394 C121.714789,33.2079864 121.520777,34.1167801 121.132746,34.8996479 C120.744716,35.6825157 120.18991,36.2849744 119.46831,36.7070423 C118.74671,37.1291101 117.916202,37.3401408 116.976761,37.3401408 Z M116.976761,35.971831 C117.957047,35.971831 118.70927,35.6484774 119.233451,35.0017606 C119.757632,34.3550437 120.019718,33.4122128 120.019718,32.1732394 C120.019718,30.9614963 119.754228,30.0254728 119.223239,29.3651408 C118.692251,28.7048089 117.943432,28.3746479 116.976761,28.3746479 C116.010089,28.3746479 115.26127,28.7048089 114.730282,29.3651408 C114.199293,30.0254728 113.933803,30.9614963 113.933803,32.1732394 C113.933803,33.3985977 114.195889,34.3380249 114.72007,34.9915493 C115.244251,35.6450737 115.996474,35.971831 116.976761,35.971831 Z M129.822535,28.4359155 L128.740141,28.5380282 C127.719009,28.6333338 126.980401,28.9532837 126.524296,29.4978873 C126.06819,30.042491 125.840141,30.7164279 125.840141,31.5197183 L125.840141,37.1971831 L124.185915,37.1971831 L124.185915,27.2514085 L125.799296,27.2514085 L125.799296,28.9873239 C126.357515,27.8300412 127.453513,27.183334 129.087324,27.0471831 L129.679577,27.006338 L129.822535,28.4359155 Z M139.727465,32.4795775 L132.457042,32.4795775 C132.511503,33.6368602 132.824645,34.5116168 133.396479,35.1038732 C133.968313,35.6961297 134.778399,35.9922535 135.826761,35.9922535 C136.984043,35.9922535 138.046005,35.5974218 139.012676,34.8077465 L139.564085,36.0126761 C139.128402,36.4211288 138.570191,36.7444824 137.889437,36.9827465 C137.208682,37.2210106 136.514323,37.3401408 135.806338,37.3401408 C134.254218,37.3401408 133.032281,36.8840421 132.140493,35.971831 C131.248704,35.0596199 130.802817,33.8002428 130.802817,32.193662 C130.802817,31.1725301 131.000233,30.2705438 131.39507,29.4876761 C131.789908,28.7048083 132.344715,28.0955421 133.059507,27.6598592 C133.774299,27.2241762 134.587789,27.006338 135.5,27.006338 C136.820664,27.006338 137.855395,27.4386107 138.604225,28.303169 C139.353055,29.1677273 139.727465,30.3556262 139.727465,31.8669014 L139.727465,32.4795775 Z M135.520423,28.2929577 C134.649057,28.2929577 133.951294,28.5652555 133.427113,29.1098592 C132.902932,29.6544628 132.593193,30.423704 132.497887,31.4176056 L138.277465,31.4176056 C138.250235,30.4100889 137.998359,29.637444 137.521831,29.0996479 C137.045303,28.5618518 136.378173,28.2929577 135.520423,28.2929577 Z" id="App-Store" fill="#000000"></path>
                    <path d="M33.9149452,33.594782 C32.6792019,35.3938833 31.400939,37.1819182 29.3827465,37.2193964 C27.396518,37.2568746 26.7597653,36.0481288 24.4932942,36.0481288 C22.2244444,36.0481288 21.5146948,37.1819182 19.6393592,37.2568746 C17.6909969,37.3294702 16.2094875,35.3137626 14.9635603,33.5227767 C12.4181698,29.8608317 10.4754272,23.1686117 13.0882097,18.6523112 C14.3820532,16.4094178 16.7004695,14.9903219 19.2128255,14.9528585 C21.1262207,14.9178001 22.933748,16.2371362 24.1024413,16.2371362 C25.2729186,16.2371362 27.4668388,14.6531214 29.773302,14.8854567 C30.7387637,14.925163 33.4484194,15.2727659 35.1885994,17.8078565 C35.0510798,17.8978484 31.9542879,19.6915493 31.9920501,23.4284507 C32.0299609,27.8923407 35.9210955,29.3761234 35.9662911,29.396338 C35.9310563,29.5012475 35.3442567,31.5145942 33.9149452,33.594782 Z M25.4412128,9.98178806 C26.5094053,8.73560832 28.3142567,7.80870154 29.8037793,7.74641985 C29.9940767,9.47742589 29.2945853,11.2108223 28.2614789,12.4598793 C27.2262911,13.7066935 25.5317527,14.6779396 23.8687324,14.5482562 C23.6427543,12.8547136 24.4809546,11.0884869 25.4412128,9.98178806 Z" id="logo" fill="#000000" fill-rule="nonzero"></path>
                </g>
            </g>
        </g>
    </g>
</svg>