<?xml version="1.0" encoding="UTF-8" standalone="no"?>
<svg width="278px" height="56px" viewBox="0 0 278 56" version="1.1" xmlns="http://www.w3.org/2000/svg" xmlns:xlink="http://www.w3.org/1999/xlink">
    <!-- Generator: Sketch 48.2 (47327) - http://www.bohemiancoding.com/sketch -->
    <title>Itinerum</title>
    <desc>Created with Sketch.</desc>
    <defs></defs>
    <g id="Elements" stroke="none" stroke-width="1" fill="none" fill-rule="evenodd" transform="translate(-721.000000, -659.000000)">
        <path d="M721,659 L728.372014,659 L728.372014,713.554795 L721,713.554795 L721,659 Z M760.087031,683.041096 L750.180887,683.041096 L750.180887,699.607877 C750.180887,700.635279 750.206484,701.649824 750.257679,702.651541 C750.308874,703.653258 750.500852,704.552222 750.833618,705.348459 C751.166384,706.144696 751.678324,706.786813 752.369454,707.274829 C753.060584,707.762845 754.071666,708.006849 755.40273,708.006849 C756.221847,708.006849 757.066549,707.929795 757.93686,707.775685 C758.807172,707.621575 759.600679,707.339043 760.317406,706.928082 L760.317406,713.246575 C759.498289,713.708906 758.436013,714.029965 757.130546,714.20976 C755.825079,714.389556 754.813997,714.479452 754.09727,714.479452 C751.43514,714.479452 749.374581,714.107024 747.915529,713.362158 C746.456477,712.617291 745.381403,711.654115 744.690273,710.472603 C743.999143,709.29109 743.589591,707.968329 743.461604,706.504281 C743.333617,705.040232 743.269625,703.563364 743.269625,702.07363 L743.269625,683.041096 L735.283276,683.041096 L735.283276,677.030822 L743.269625,677.030822 L743.269625,666.782534 L750.180887,666.782534 L750.180887,677.030822 L760.087031,677.030822 L760.087031,683.041096 Z M787.424915,677.030822 L794.336177,677.030822 L794.336177,682.655822 L794.489761,682.655822 C795.360073,680.703757 796.870296,679.12415 799.020478,677.916952 C801.170659,676.709754 803.65357,676.106164 806.469283,676.106164 C808.209906,676.106164 809.886511,676.375853 811.499147,676.91524 C813.111783,677.454626 814.519619,678.289378 815.722696,679.419521 C816.925774,680.549663 817.885662,682.000847 818.602389,683.773116 C819.319116,685.545386 819.677474,687.638687 819.677474,690.053082 L819.677474,713.554795 L812.766212,713.554795 L812.766212,691.979452 C812.766212,690.284238 812.535838,688.833054 812.075085,687.625856 C811.614332,686.418658 811.000004,685.442641 810.232082,684.697774 C809.46416,683.952907 808.581063,683.413529 807.582765,683.079623 C806.584466,682.745718 805.547787,682.578767 804.472696,682.578767 C803.039242,682.578767 801.708197,682.809929 800.479522,683.27226 C799.250847,683.734591 798.175773,684.466605 797.254266,685.468322 C796.33276,686.470039 795.616044,687.741431 795.104096,689.282534 C794.592148,690.823638 794.336177,692.64725 794.336177,694.753425 L794.336177,713.554795 L787.424915,713.554795 L787.424915,677.030822 Z M835.343003,697.835616 C835.343003,699.42809 835.688563,700.879274 836.379693,702.189212 C837.070823,703.49915 837.979517,704.616434 839.105802,705.541096 C840.232088,706.465758 841.537535,707.184929 843.022184,707.69863 C844.506833,708.212331 846.042654,708.469178 847.629693,708.469178 C849.779874,708.469178 851.648456,707.968327 853.235495,706.96661 C854.822534,705.964892 856.281563,704.642132 857.612628,702.998288 L862.834471,707.005137 C858.994861,711.988039 853.619488,714.479452 846.708191,714.479452 C843.841283,714.479452 841.243186,713.991443 838.913823,713.015411 C836.584459,712.039379 834.613489,710.690933 833.000853,708.970034 C831.388217,707.249135 830.146762,705.220046 829.276451,702.882705 C828.406139,700.545365 827.97099,698.015425 827.97099,695.292808 C827.97099,692.570192 828.444535,690.040251 829.391638,687.702911 C830.338742,685.365571 831.64419,683.336481 833.30802,681.615582 C834.971851,679.894683 836.95562,678.546238 839.259386,677.570205 C841.563151,676.594173 844.071659,676.106164 846.784983,676.106164 C850.010255,676.106164 852.736337,676.671227 854.963311,677.80137 C857.190284,678.931512 859.020471,680.408381 860.453925,682.232021 C861.887379,684.05566 862.924058,686.110434 863.563993,688.396404 C864.203928,690.682374 864.523891,693.006838 864.523891,695.369863 L864.523891,697.835616 L835.343003,697.835616 Z M857.151877,692.287671 C857.100682,690.746568 856.857511,689.333911 856.422355,688.049658 C855.987199,686.765405 855.334475,685.648121 854.464164,684.697774 C853.593852,683.747427 852.505979,683.002571 851.200512,682.463185 C849.895045,681.923799 848.372022,681.65411 846.631399,681.65411 C844.941971,681.65411 843.393352,681.975168 841.985495,682.617295 C840.577638,683.259421 839.387377,684.094173 838.414676,685.121575 C837.441975,686.148978 836.686863,687.291946 836.149317,688.550514 C835.611772,689.809082 835.343003,691.054788 835.343003,692.287671 L857.151877,692.287671 Z M872.817406,677.030822 L879.728669,677.030822 L879.728669,682.655822 L879.882253,682.655822 C880.343006,681.67979 880.957334,680.793668 881.725256,679.997432 C882.493178,679.201195 883.350678,678.520551 884.297782,677.955479 C885.244885,677.390408 886.281564,676.940926 887.40785,676.607021 C888.534135,676.273115 889.660404,676.106164 890.786689,676.106164 C891.912975,676.106164 892.936855,676.260272 893.858362,676.568493 L893.551195,684.042808 C892.988052,683.888698 892.424917,683.760274 891.861775,683.657534 C891.298632,683.554794 890.735498,683.503425 890.172355,683.503425 C886.793498,683.503425 884.2082,684.453758 882.416382,686.354452 C880.624564,688.255146 879.728669,691.208884 879.728669,695.215753 L879.728669,713.554795 L872.817406,713.554795 L872.817406,677.030822 Z M933.482935,713.554795 L926.571672,713.554795 L926.571672,707.929795 L926.418089,707.929795 C925.547777,709.881859 924.037553,711.461467 921.887372,712.668664 C919.737191,713.875862 917.25428,714.479452 914.438567,714.479452 C912.646749,714.479452 910.957346,714.209763 909.370307,713.670377 C907.783269,713.13099 906.388231,712.296239 905.185154,711.166096 C903.982076,710.035953 903.022188,708.584769 902.305461,706.8125 C901.588734,705.040231 901.230375,702.94693 901.230375,700.532534 L901.230375,677.030822 L908.141638,677.030822 L908.141638,698.606164 C908.141638,700.301378 908.372011,701.752562 908.832765,702.95976 C909.293518,704.166958 909.907846,705.142976 910.675768,705.887842 C911.44369,706.632709 912.326787,707.172087 913.325085,707.505993 C914.323384,707.839899 915.360063,708.006849 916.435154,708.006849 C917.868608,708.006849 919.199653,707.775687 920.428328,707.313356 C921.657003,706.851025 922.732077,706.119012 923.653584,705.117295 C924.57509,704.115577 925.291806,702.844186 925.803754,701.303082 C926.315702,699.761979 926.571672,697.938367 926.571672,695.832192 L926.571672,677.030822 L933.482935,677.030822 L933.482935,713.554795 Z M943.926621,677.030822 L950.377133,677.030822 L950.377133,682.732877 L950.530717,682.732877 C950.684301,682.219176 951.081055,681.577059 951.72099,680.806507 C952.360925,680.035955 953.180029,679.303942 954.178328,678.610445 C955.176626,677.916949 956.354089,677.326201 957.710751,676.838185 C959.067413,676.350169 960.564838,676.106164 962.203072,676.106164 C964.916396,676.106164 967.19453,676.671227 969.037543,677.80137 C970.880555,678.931512 972.390779,680.626701 973.568259,682.886986 C974.74574,680.626701 976.409546,678.931512 978.559727,677.80137 C980.709908,676.671227 982.885655,676.106164 985.087031,676.106164 C987.902744,676.106164 990.206476,676.568489 991.998294,677.493151 C993.790111,678.417813 995.197947,679.637835 996.221843,681.153253 C997.245739,682.668672 997.949657,684.389545 998.333618,686.315925 C998.717579,688.242304 998.909556,690.232866 998.909556,692.287671 L998.909556,713.554795 L991.998294,713.554795 L991.998294,693.212329 C991.998294,691.825336 991.908704,690.489732 991.729522,689.205479 C991.55034,687.921226 991.179184,686.791101 990.616041,685.815068 C990.052898,684.839036 989.259391,684.055654 988.235495,683.464897 C987.211599,682.874141 985.854957,682.578767 984.165529,682.578767 C980.837867,682.578767 978.457345,683.606154 977.023891,685.660959 C975.590437,687.715764 974.87372,690.361285 974.87372,693.597603 L974.87372,713.554795 L967.962457,713.554795 L967.962457,694.445205 C967.962457,692.698621 967.872868,691.106172 967.693686,689.667808 C967.514504,688.229445 967.156146,686.983738 966.618601,685.930651 C966.081055,684.877563 965.313145,684.055654 964.314846,683.464897 C963.316548,682.874141 961.972705,682.578767 960.283276,682.578767 C959.054601,682.578767 957.86434,682.822772 956.712457,683.310788 C955.560574,683.798804 954.549492,684.530817 953.679181,685.506849 C952.808869,686.482882 952.11775,687.728588 951.605802,689.244007 C951.093854,690.759425 950.837884,692.54451 950.837884,694.599315 L950.837884,713.554795 L943.926621,713.554795 L943.926621,677.030822 Z" id="Itinerum" fill="#FFFFFF"></path>
    </g>
</svg>